<?xml version="1.0" standalone="no"?>
<!DOCTYPE svg PUBLIC "-//W3C//DTD SVG 20010904//EN"
 "http://www.w3.org/TR/2001/REC-SVG-20010904/DTD/svg10.dtd">
<svg version="1.0" xmlns="http://www.w3.org/2000/svg"
 width="70.000000pt" height="70.000000pt" viewBox="0 0 70.000000 70.000000"
 preserveAspectRatio="xMidYMid meet">

<g transform="translate(0.000000,70.000000) scale(0.100000,-0.100000)"
fill="#000000" stroke="none">
<path d="M0 350 l0 -350 350 0 350 0 0 350 0 350 -350 0 -350 0 0 -350z m547
178 c6 14 42 16 63 2 11 -8 8 -9 -12 -4 -19 4 -29 1 -36 -12 -9 -15 -13 -16
-26 -5 -13 11 -16 11 -16 0 -1 -10 -4 -8 -11 4 -5 9 -15 17 -21 17 -6 0 -3 -9
7 -20 10 -11 20 -18 23 -15 2 2 17 -2 33 -10 15 -8 36 -12 46 -9 17 5 17 4 -1
-10 -17 -14 -21 -13 -44 5 -14 10 -27 18 -29 16 -2 -2 3 -22 10 -43 8 -25 18
-38 28 -36 11 3 12 1 2 -9 -13 -13 -18 -69 -6 -69 3 0 16 8 27 18 21 17 21 17
4 -4 -24 -28 -22 -37 7 -32 13 3 22 1 19 -3 -3 -5 -12 -9 -21 -9 -18 0 -53
-28 -53 -42 0 -4 8 -8 18 -9 13 0 12 -2 -6 -9 -12 -5 -25 -16 -28 -23 -3 -8
-11 -14 -19 -14 -18 0 -20 14 -2 20 9 3 9 7 0 18 -9 11 -7 20 8 39 18 23 19
23 9 3 -6 -13 -7 -23 -1 -23 14 0 24 31 21 65 -3 39 -4 40 -33 20 -44 -28 -56
-83 -33 -150 4 -11 -3 -1 -15 22 -20 38 -21 45 -9 70 23 46 24 49 7 34 -23
-18 -32 -74 -16 -102 11 -21 11 -23 -3 -11 -24 19 -52 -11 -37 -40 6 -11 9
-22 7 -24 -3 -2 -12 13 -22 34 -10 20 -14 34 -10 29 12 -12 44 24 44 49 l0 23
-37 -21 -38 -21 48 49 c30 32 47 58 47 74 l-1 25 -19 -24 -20 -23 0 32 c0 17
-5 40 -10 51 -6 10 -7 19 -2 19 5 0 14 -15 19 -32 l10 -33 11 25 10 25 8 -30
c4 -16 7 -36 6 -42 -4 -19 18 -16 55 7 33 20 34 25 13 75 -5 11 -11 27 -13 35
-3 8 -6 -3 -7 -25 -1 -22 -5 -51 -9 -65 -7 -22 -8 -20 -12 17 -2 23 -1 39 3
37 10 -6 10 -7 -2 56 -6 30 -18 62 -28 73 -10 11 5 6 37 -14 37 -23 56 -30 58
-21z m-304 34 c-18 -12 -35 -64 -28 -90 3 -12 10 -20 16 -17 5 4 3 -10 -5 -30
-18 -43 -22 -100 -6 -75 5 8 10 26 10 40 0 14 9 39 20 55 24 36 27 70 5 61
-21 -8 -19 -3 8 23 l24 22 -7 -45 c-4 -25 -13 -52 -20 -61 -16 -20 -30 -94
-19 -101 5 -3 9 1 9 8 0 7 9 -2 20 -19 24 -40 32 -42 18 -5 -10 27 6 121 19
109 3 -3 0 -22 -7 -43 -10 -29 -10 -45 1 -78 7 -22 17 -47 22 -53 14 -19 -3
-16 -25 4 -17 15 -18 15 -18 0 0 -10 -4 -17 -10 -17 -5 0 -10 8 -10 18 0 9 -9
28 -20 42 -12 15 -18 18 -14 8 3 -10 1 -18 -5 -18 -6 0 -11 5 -11 12 0 7 -12
23 -27 36 -26 21 -26 22 -5 17 18 -5 22 -2 22 15 0 12 4 29 9 38 6 11 5 25 -3
40 l-12 23 -20 -22 c-16 -18 -19 -34 -17 -101 3 -90 17 -122 41 -91 15 19 15
15 -4 -32 -3 -8 -1 -15 5 -15 6 0 11 -4 11 -9 0 -13 -37 -2 -51 15 -9 11 -9
14 0 14 21 0 -32 60 -53 61 -18 1 -18 2 3 8 l25 7 -24 22 c-13 12 -20 22 -15
22 5 0 19 -9 31 -21 l22 -21 -5 40 c-7 49 9 99 42 134 14 15 25 31 25 35 -1 4
-10 -3 -20 -16 -17 -19 -20 -20 -20 -6 0 14 -3 15 -14 6 -11 -9 -16 -9 -23 2
-4 8 -15 17 -23 20 -10 4 -8 6 7 6 12 1 24 -3 28 -8 7 -12 59 5 76 25 6 8 17
14 23 14 8 0 7 -3 -1 -8z m198 -44 c13 -18 17 -28 8 -21 -12 10 -17 7 -28 -18
-7 -17 -15 -28 -18 -25 -2 2 1 14 7 26 6 12 9 33 6 46 -8 32 -2 30 25 -8z
m-299 -50 c-20 -21 -23 -21 -39 -6 -15 16 -15 17 4 12 12 -3 24 -1 27 5 4 6
12 11 19 11 6 0 1 -10 -11 -22z m199 -66 c-27 -38 -28 -66 -1 -34 11 13 24 21
30 17 13 -8 13 -65 0 -65 -5 0 -14 -15 -19 -32 -6 -22 -10 -26 -10 -12 -1 11
-7 26 -13 33 -11 11 -10 12 0 7 17 -10 42 11 42 35 0 25 -20 24 -27 -1 -4 -16
-8 -18 -19 -9 -18 15 -18 25 4 70 9 21 21 34 26 29 5 -5 -1 -21 -13 -38z
m-151 -123 c0 -6 -4 -7 -10 -4 -5 3 -10 11 -10 16 0 6 5 7 10 4 6 -3 10 -11
10 -16z m60 -15 c0 -23 -25 -84 -35 -84 -2 0 3 16 11 36 9 20 13 48 9 61 -4
16 -2 22 5 18 5 -3 10 -17 10 -31z m52 -52 c16 -13 16 -17 2 -44 -9 -16 -18
-27 -21 -24 -3 3 0 12 7 21 16 20 6 45 -19 45 -14 0 -19 5 -15 15 6 15 17 13
46 -13z m45 -4 c-3 -8 -6 -5 -6 6 -1 11 2 17 5 13 3 -3 4 -12 1 -19z"/>
<path d="M250 316 c0 -2 8 -10 18 -17 15 -13 16 -12 3 4 -13 16 -21 21 -21 13z"/>
</g>
</svg>
